<mxfile host="app.diagrams.net" agent="Mozilla/5.0 (Windows NT 10.0; Win64; x64) AppleWebKit/537.36 (KHTML, like Gecko) Chrome/126.0.0.0 YaBrowser/24.7.0.0 Safari/537.36" version="24.7.16">
  <diagram id="6a731a19-8d31-9384-78a2-239565b7b9f0" name="Page-1">
    <mxGraphModel dx="2093" dy="989" grid="1" gridSize="10" guides="1" tooltips="1" connect="1" arrows="1" fold="1" page="1" pageScale="1" pageWidth="1169" pageHeight="827" background="none" math="0" shadow="0">
      <root>
        <mxCell id="0" />
        <mxCell id="1" parent="0" />
        <mxCell id="1350" value="Реклама" style="ellipse;whiteSpace=wrap;html=1;shadow=0;fontFamily=Helvetica;fontSize=20;fontColor=#FFFFFF;align=center;strokeWidth=3;fillColor=#1699D3;strokeColor=none;" parent="1" vertex="1">
          <mxGeometry x="700" y="735" width="120" height="120" as="geometry" />
        </mxCell>
        <mxCell id="1352" value="Администрирование" style="ellipse;whiteSpace=wrap;html=1;shadow=0;fontFamily=Helvetica;fontSize=20;fontColor=#FFFFFF;align=center;strokeWidth=3;fillColor=#E85642;strokeColor=none;" parent="1" vertex="1">
          <mxGeometry x="1447" y="740" width="199" height="116.5" as="geometry" />
        </mxCell>
        <mxCell id="1354" value="Бэкенд" style="ellipse;whiteSpace=wrap;html=1;shadow=0;fontFamily=Helvetica;fontSize=20;fontColor=#FFFFFF;align=center;strokeWidth=3;fillColor=#736ca8;strokeColor=none;" parent="1" vertex="1">
          <mxGeometry x="1520" y="1182.5" width="120" height="120" as="geometry" />
        </mxCell>
        <mxCell id="1356" value="Фронтенд" style="ellipse;whiteSpace=wrap;html=1;shadow=0;fontFamily=Helvetica;fontSize=20;fontColor=#FFFFFF;align=center;strokeWidth=3;fillColor=#E85642;strokeColor=none;" parent="1" vertex="1">
          <mxGeometry x="673.5" y="1157.5" width="120" height="120" as="geometry" />
        </mxCell>
        <mxCell id="1359" style="endArrow=none;strokeWidth=6;strokeColor=#1699D3;html=1;exitX=0;exitY=0.5;exitDx=0;exitDy=0;" parent="1" source="1515" target="1350" edge="1">
          <mxGeometry relative="1" as="geometry">
            <mxPoint x="1025.438" y="668.0575000000001" as="sourcePoint" />
            <Array as="points" />
          </mxGeometry>
        </mxCell>
        <mxCell id="1361" style="endArrow=none;strokeWidth=6;strokeColor=#E85642;html=1;exitX=1;exitY=0.5;exitDx=0;exitDy=0;" parent="1" source="1515" target="1352" edge="1">
          <mxGeometry relative="1" as="geometry">
            <Array as="points" />
          </mxGeometry>
        </mxCell>
        <mxCell id="1364" style="endArrow=none;strokeWidth=6;strokeColor=#736ca8;html=1;" parent="1" source="ZOfVJfw6BZA1SS0AodTx-1565" target="1354" edge="1">
          <mxGeometry relative="1" as="geometry">
            <mxPoint x="1136" y="1080" as="sourcePoint" />
            <Array as="points">
              <mxPoint x="1360" y="1080" />
            </Array>
          </mxGeometry>
        </mxCell>
        <mxCell id="1368" value="Найм PR агенства&amp;nbsp;&amp;nbsp;" style="rounded=1;fillColor=#64BBE2;strokeColor=none;strokeWidth=3;shadow=0;html=1;fontColor=#FFFFFF;" parent="1" vertex="1">
          <mxGeometry x="500" y="775" width="130" height="40" as="geometry" />
        </mxCell>
        <mxCell id="1380" value="" style="edgeStyle=none;endArrow=none;strokeWidth=3;strokeColor=#64BBE2;html=1;" parent="1" source="1350" target="1368" edge="1">
          <mxGeometry x="-221.5" y="56.5" width="100" height="100" as="geometry">
            <mxPoint x="-56.5" y="616.5" as="sourcePoint" />
            <mxPoint x="43.5" y="516.5" as="targetPoint" />
          </mxGeometry>
        </mxCell>
        <mxCell id="1421" value="Найм команды" style="rounded=1;fillColor=#f08e81;strokeColor=none;strokeWidth=3;shadow=0;html=1;fontColor=#FFFFFF;" parent="1" vertex="1">
          <mxGeometry x="1702" y="856.5" width="120" height="40" as="geometry" />
        </mxCell>
        <mxCell id="1433" value="" style="edgeStyle=none;endArrow=none;strokeWidth=3;strokeColor=#F08E81;html=1;exitX=1;exitY=1;exitDx=0;exitDy=0;" parent="1" source="1352" target="1421" edge="1">
          <mxGeometry x="31" y="106.5" width="100" height="100" as="geometry">
            <mxPoint x="-30" y="528.25" as="sourcePoint" />
            <mxPoint x="70" y="428.25" as="targetPoint" />
          </mxGeometry>
        </mxCell>
        <mxCell id="1457" value="Создать базу данных&lt;div&gt;заправок&lt;/div&gt;" style="rounded=1;fillColor=#a29dc5;strokeColor=none;strokeWidth=3;shadow=0;html=1;fontColor=#FFFFFF;" parent="1" vertex="1">
          <mxGeometry x="1460" y="1076" width="135" height="62" as="geometry" />
        </mxCell>
        <mxCell id="1458" value="Добавить&lt;div&gt;отслеживание&amp;nbsp;&lt;/div&gt;&lt;div&gt;геолокации&lt;/div&gt;" style="rounded=1;fillColor=#a29dc5;strokeColor=none;strokeWidth=3;shadow=0;html=1;fontColor=#FFFFFF;" parent="1" vertex="1">
          <mxGeometry x="1410" y="1310" width="120" height="67.5" as="geometry" />
        </mxCell>
        <mxCell id="1459" value="Интегрировать&lt;div&gt;платежные системы&lt;/div&gt;" style="rounded=1;fillColor=#a29dc5;strokeColor=none;strokeWidth=3;shadow=0;html=1;fontColor=#FFFFFF;" parent="1" vertex="1">
          <mxGeometry x="1631" y="1100" width="140" height="45" as="geometry" />
        </mxCell>
        <mxCell id="1460" value="Оптимизировать&lt;div&gt;приложение&lt;/div&gt;" style="rounded=1;fillColor=#a29dc5;strokeColor=none;strokeWidth=3;shadow=0;html=1;fontColor=#FFFFFF;" parent="1" vertex="1">
          <mxGeometry x="1706.5" y="1205" width="113.5" height="60" as="geometry" />
        </mxCell>
        <mxCell id="1461" value="Создать систему&lt;div&gt;баг трекинга&lt;/div&gt;" style="rounded=1;fillColor=#a29dc5;strokeColor=none;strokeWidth=3;shadow=0;html=1;fontColor=#FFFFFF;" parent="1" vertex="1">
          <mxGeometry x="1646" y="1320" width="120" height="57.5" as="geometry" />
        </mxCell>
        <mxCell id="1463" value="" style="edgeStyle=none;endArrow=none;strokeWidth=3;strokeColor=#A29DC5;html=1;" parent="1" source="1354" target="1460" edge="1">
          <mxGeometry x="251" y="-103.5" width="100" height="100" as="geometry">
            <mxPoint x="60" y="7.5" as="sourcePoint" />
            <mxPoint x="160" y="-92.5" as="targetPoint" />
          </mxGeometry>
        </mxCell>
        <mxCell id="1464" value="" style="edgeStyle=none;endArrow=none;strokeWidth=3;strokeColor=#A29DC5;html=1;" parent="1" source="1354" target="1461" edge="1">
          <mxGeometry x="251" y="-103.5" width="100" height="100" as="geometry">
            <mxPoint x="60" y="7.5" as="sourcePoint" />
            <mxPoint x="160" y="-92.5" as="targetPoint" />
          </mxGeometry>
        </mxCell>
        <mxCell id="1465" value="" style="edgeStyle=none;endArrow=none;strokeWidth=3;strokeColor=#A29DC5;html=1;" parent="1" source="1354" target="1458" edge="1">
          <mxGeometry x="251" y="-103.5" width="100" height="100" as="geometry">
            <mxPoint x="60" y="7.5" as="sourcePoint" />
            <mxPoint x="160" y="-92.5" as="targetPoint" />
          </mxGeometry>
        </mxCell>
        <mxCell id="1467" value="" style="edgeStyle=none;endArrow=none;strokeWidth=3;strokeColor=#A29DC5;html=1;" parent="1" source="1354" target="1457" edge="1">
          <mxGeometry x="251" y="-103.5" width="100" height="100" as="geometry">
            <mxPoint x="60" y="7.5" as="sourcePoint" />
            <mxPoint x="160" y="-92.5" as="targetPoint" />
          </mxGeometry>
        </mxCell>
        <mxCell id="1490" value="Создать&lt;div&gt;визуал&lt;/div&gt;&lt;div&gt;приложения&lt;/div&gt;" style="rounded=1;fillColor=#f08e81;strokeColor=none;strokeWidth=3;shadow=0;html=1;fontColor=#FFFFFF;" parent="1" vertex="1">
          <mxGeometry x="607" y="1066.75" width="131.5" height="67.5" as="geometry" />
        </mxCell>
        <mxCell id="1492" value="Интегрировать&lt;div&gt;приложения с&amp;nbsp;&lt;/div&gt;&lt;div&gt;сайтом&lt;/div&gt;" style="rounded=1;fillColor=#f08e81;strokeColor=none;strokeWidth=3;shadow=0;html=1;fontColor=#FFFFFF;" parent="1" vertex="1">
          <mxGeometry x="451.5" y="1280" width="108.5" height="67.5" as="geometry" />
        </mxCell>
        <mxCell id="1493" value="Создать систему&amp;nbsp;&lt;div&gt;авторизации&lt;/div&gt;" style="rounded=1;fillColor=#f08e81;strokeColor=none;strokeWidth=3;shadow=0;html=1;fontColor=#FFFFFF;" parent="1" vertex="1">
          <mxGeometry x="560" y="1360" width="130" height="50" as="geometry" />
        </mxCell>
        <mxCell id="1494" value="Реализовать&lt;div&gt;карту с заправками&lt;/div&gt;" style="rounded=1;fillColor=#f08e81;strokeColor=none;strokeWidth=3;shadow=0;html=1;fontColor=#FFFFFF;" parent="1" vertex="1">
          <mxGeometry x="760" y="1370" width="130" height="50" as="geometry" />
        </mxCell>
        <mxCell id="1495" value="Реализовать&lt;div&gt;&lt;span style=&quot;background-color: initial;&quot;&gt;функционал&lt;/span&gt;&lt;div&gt;&lt;div&gt;поиска и&amp;nbsp;&lt;/div&gt;&lt;div&gt;фильтрации&lt;/div&gt;&lt;/div&gt;&lt;/div&gt;" style="rounded=1;fillColor=#f08e81;strokeColor=none;strokeWidth=3;shadow=0;html=1;fontColor=#FFFFFF;" parent="1" vertex="1">
          <mxGeometry x="850" y="1205" width="130" height="80" as="geometry" />
        </mxCell>
        <mxCell id="1503" value="" style="edgeStyle=none;endArrow=none;strokeWidth=3;strokeColor=#F08E81;html=1;" parent="1" source="1356" target="1490" edge="1">
          <mxGeometry x="188.5" y="51.5" width="100" height="100" as="geometry">
            <mxPoint x="303.5" y="137.5" as="sourcePoint" />
            <mxPoint x="403.5" y="37.5" as="targetPoint" />
          </mxGeometry>
        </mxCell>
        <mxCell id="1505" value="" style="edgeStyle=none;endArrow=none;strokeWidth=3;strokeColor=#F08E81;html=1;" parent="1" source="1356" target="1492" edge="1">
          <mxGeometry x="188.5" y="51.5" width="100" height="100" as="geometry">
            <mxPoint x="303.5" y="137.5" as="sourcePoint" />
            <mxPoint x="403.5" y="37.5" as="targetPoint" />
          </mxGeometry>
        </mxCell>
        <mxCell id="1506" value="" style="edgeStyle=none;endArrow=none;strokeWidth=3;strokeColor=#F08E81;html=1;" parent="1" source="1356" target="1493" edge="1">
          <mxGeometry x="188.5" y="51.5" width="100" height="100" as="geometry">
            <mxPoint x="303.5" y="137.5" as="sourcePoint" />
            <mxPoint x="403.5" y="37.5" as="targetPoint" />
          </mxGeometry>
        </mxCell>
        <mxCell id="1507" value="" style="edgeStyle=none;endArrow=none;strokeWidth=3;strokeColor=#F08E81;html=1;" parent="1" source="1356" target="1494" edge="1">
          <mxGeometry x="188.5" y="51.5" width="100" height="100" as="geometry">
            <mxPoint x="303.5" y="137.5" as="sourcePoint" />
            <mxPoint x="403.5" y="37.5" as="targetPoint" />
          </mxGeometry>
        </mxCell>
        <mxCell id="1508" value="" style="edgeStyle=none;endArrow=none;strokeWidth=3;strokeColor=#F08E81;html=1;" parent="1" source="1356" target="1495" edge="1">
          <mxGeometry x="188.5" y="51.5" width="100" height="100" as="geometry">
            <mxPoint x="303.5" y="137.5" as="sourcePoint" />
            <mxPoint x="403.5" y="37.5" as="targetPoint" />
          </mxGeometry>
        </mxCell>
        <mxCell id="1514" style="edgeStyle=orthogonalEdgeStyle;rounded=0;html=1;exitX=0.75;exitY=0;entryX=0.75;entryY=0;startArrow=none;startFill=0;endArrow=block;endFill=1;jettySize=auto;orthogonalLoop=1;strokeColor=#12aab5;strokeWidth=6;fontSize=20;fontColor=#2F5B7C;" parent="1" edge="1">
          <mxGeometry relative="1" as="geometry">
            <mxPoint x="1550" y="693.25" as="sourcePoint" />
            <mxPoint x="1550" y="693.25" as="targetPoint" />
          </mxGeometry>
        </mxCell>
        <mxCell id="ZOfVJfw6BZA1SS0AodTx-1563" value="" style="edgeStyle=orthogonalEdgeStyle;rounded=0;orthogonalLoop=1;jettySize=auto;html=1;" edge="1" parent="1">
          <mxGeometry relative="1" as="geometry">
            <mxPoint x="1136" y="1080" as="sourcePoint" />
            <mxPoint x="1135.5" y="1124.75" as="targetPoint" />
          </mxGeometry>
        </mxCell>
        <mxCell id="1515" value="Приложение для автозаправочной станции" style="ellipse;whiteSpace=wrap;html=1;shadow=0;fontFamily=Helvetica;fontSize=30;fontColor=#2F5B7C;align=center;strokeColor=#2F5B7C;strokeWidth=6;fillColor=#FFFFFF;fontStyle=1;gradientColor=none;" parent="1" vertex="1">
          <mxGeometry x="956" y="655" width="359" height="286.5" as="geometry" />
        </mxCell>
        <mxCell id="1541" value="" style="edgeStyle=none;endArrow=none;strokeWidth=3;strokeColor=#A29DC5;html=1;" parent="1" source="1354" target="1459" edge="1">
          <mxGeometry x="-1174" y="-408.5" width="100" height="100" as="geometry">
            <mxPoint x="-1365" y="-297.5" as="sourcePoint" />
            <mxPoint x="-1265" y="-397.5" as="targetPoint" />
          </mxGeometry>
        </mxCell>
        <mxCell id="ZOfVJfw6BZA1SS0AodTx-1545" value="Обеспечить&lt;div&gt;правильное отображение&lt;/div&gt;" style="whiteSpace=wrap;html=1;fillColor=#f08e81;strokeColor=none;fontColor=#FFFFFF;rounded=1;strokeWidth=3;shadow=0;" vertex="1" parent="1">
          <mxGeometry x="613.5" y="941.5" width="120" height="60" as="geometry" />
        </mxCell>
        <mxCell id="ZOfVJfw6BZA1SS0AodTx-1547" value="Разработать макеты" style="whiteSpace=wrap;html=1;fillColor=#f08e81;strokeColor=none;fontColor=#FFFFFF;rounded=1;strokeWidth=3;shadow=0;" vertex="1" parent="1">
          <mxGeometry x="400" y="1070.5" width="120" height="60" as="geometry" />
        </mxCell>
        <mxCell id="ZOfVJfw6BZA1SS0AodTx-1549" value="" style="edgeStyle=none;endArrow=none;strokeWidth=3;strokeColor=#F08E81;html=1;exitX=0;exitY=0.5;exitDx=0;exitDy=0;entryX=1;entryY=0.5;entryDx=0;entryDy=0;" edge="1" parent="1" source="1490" target="ZOfVJfw6BZA1SS0AodTx-1547">
          <mxGeometry x="188.5" y="51.5" width="100" height="100" as="geometry">
            <mxPoint x="466" y="1148" as="sourcePoint" />
            <mxPoint x="375" y="1098" as="targetPoint" />
          </mxGeometry>
        </mxCell>
        <mxCell id="ZOfVJfw6BZA1SS0AodTx-1550" value="" style="edgeStyle=none;endArrow=none;strokeWidth=3;strokeColor=#F08E81;html=1;exitX=0.5;exitY=0;exitDx=0;exitDy=0;entryX=0.5;entryY=1;entryDx=0;entryDy=0;" edge="1" parent="1" source="1490" target="ZOfVJfw6BZA1SS0AodTx-1545">
          <mxGeometry x="188.5" y="51.5" width="100" height="100" as="geometry">
            <mxPoint x="529" y="1049.5" as="sourcePoint" />
            <mxPoint x="440" y="1049.5" as="targetPoint" />
          </mxGeometry>
        </mxCell>
        <mxCell id="ZOfVJfw6BZA1SS0AodTx-1551" value="Разработать&amp;nbsp;&lt;div&gt;саунддизайн&lt;/div&gt;" style="whiteSpace=wrap;html=1;fillColor=#f08e81;strokeColor=none;fontColor=#FFFFFF;rounded=1;strokeWidth=3;shadow=0;" vertex="1" parent="1">
          <mxGeometry x="465" y="1157.5" width="120" height="60" as="geometry" />
        </mxCell>
        <mxCell id="ZOfVJfw6BZA1SS0AodTx-1553" value="" style="edgeStyle=none;endArrow=none;strokeWidth=3;strokeColor=#F08E81;html=1;entryX=1;entryY=0.5;entryDx=0;entryDy=0;exitX=0.004;exitY=0.404;exitDx=0;exitDy=0;exitPerimeter=0;" edge="1" parent="1" source="1356" target="ZOfVJfw6BZA1SS0AodTx-1551">
          <mxGeometry x="188.5" y="51.5" width="100" height="100" as="geometry">
            <mxPoint x="673.5" y="1216" as="sourcePoint" />
            <mxPoint x="555.5" y="1266" as="targetPoint" />
          </mxGeometry>
        </mxCell>
        <mxCell id="ZOfVJfw6BZA1SS0AodTx-1554" value="Реклама на билбордах" style="whiteSpace=wrap;html=1;fillColor=#64BBE2;strokeColor=none;fontColor=#FFFFFF;rounded=1;strokeWidth=3;shadow=0;" vertex="1" parent="1">
          <mxGeometry x="260" y="690" width="120" height="60" as="geometry" />
        </mxCell>
        <mxCell id="ZOfVJfw6BZA1SS0AodTx-1558" value="Реклама на&amp;nbsp;&lt;div&gt;радио&lt;/div&gt;" style="whiteSpace=wrap;html=1;fillColor=#64BBE2;strokeColor=none;fontColor=#FFFFFF;rounded=1;strokeWidth=3;shadow=0;" vertex="1" parent="1">
          <mxGeometry x="260" y="830" width="120" height="60" as="geometry" />
        </mxCell>
        <mxCell id="ZOfVJfw6BZA1SS0AodTx-1560" value="" style="edgeStyle=none;endArrow=none;strokeWidth=3;strokeColor=#64BBE2;html=1;entryX=1;entryY=0.5;entryDx=0;entryDy=0;exitX=0;exitY=0.5;exitDx=0;exitDy=0;" edge="1" parent="1" source="1368" target="ZOfVJfw6BZA1SS0AodTx-1558">
          <mxGeometry x="-221.5" y="56.5" width="100" height="100" as="geometry">
            <mxPoint x="450" y="794.5" as="sourcePoint" />
            <mxPoint x="343" y="794.5" as="targetPoint" />
          </mxGeometry>
        </mxCell>
        <mxCell id="ZOfVJfw6BZA1SS0AodTx-1567" style="endArrow=none;strokeWidth=6;strokeColor=#f08705;html=1;entryX=0.5;entryY=1;entryDx=0;entryDy=0;exitX=0.5;exitY=0;exitDx=0;exitDy=0;" edge="1" parent="1" source="ZOfVJfw6BZA1SS0AodTx-1565" target="1515">
          <mxGeometry relative="1" as="geometry">
            <mxPoint x="1141" y="1048.5" as="sourcePoint" />
            <mxPoint x="1140" y="941.5" as="targetPoint" />
          </mxGeometry>
        </mxCell>
        <mxCell id="ZOfVJfw6BZA1SS0AodTx-1565" value="Разработка" style="ellipse;whiteSpace=wrap;html=1;shadow=0;fontFamily=Helvetica;fontSize=20;fontColor=#FFFFFF;align=center;strokeWidth=3;fillColor=#F08705;strokeColor=none;gradientColor=none;" vertex="1" parent="1">
          <mxGeometry x="1032.25" y="1016.5" width="206.5" height="121.5" as="geometry" />
        </mxCell>
        <mxCell id="ZOfVJfw6BZA1SS0AodTx-1569" style="endArrow=none;strokeWidth=6;strokeColor=#E85642;html=1;exitX=1;exitY=0;exitDx=0;exitDy=0;entryX=0;entryY=0.5;entryDx=0;entryDy=0;" edge="1" parent="1" source="1356" target="ZOfVJfw6BZA1SS0AodTx-1565">
          <mxGeometry relative="1" as="geometry">
            <mxPoint x="914.5" y="1165" as="sourcePoint" />
            <mxPoint x="914.5" y="931.5" as="targetPoint" />
            <Array as="points">
              <mxPoint x="910" y="1080" />
            </Array>
          </mxGeometry>
        </mxCell>
        <mxCell id="ZOfVJfw6BZA1SS0AodTx-1570" value="" style="edgeStyle=none;endArrow=none;strokeWidth=3;strokeColor=#64BBE2;html=1;entryX=1;entryY=0.5;entryDx=0;entryDy=0;exitX=0;exitY=0.5;exitDx=0;exitDy=0;" edge="1" parent="1" source="1368" target="ZOfVJfw6BZA1SS0AodTx-1554">
          <mxGeometry x="-221.5" y="56.5" width="100" height="100" as="geometry">
            <mxPoint x="410" y="783.5" as="sourcePoint" />
            <mxPoint x="340" y="867.5" as="targetPoint" />
          </mxGeometry>
        </mxCell>
        <mxCell id="ZOfVJfw6BZA1SS0AodTx-1572" value="Таргетирование" style="whiteSpace=wrap;html=1;fillColor=#64BBE2;strokeColor=none;fontColor=#FFFFFF;rounded=1;strokeWidth=3;shadow=0;" vertex="1" parent="1">
          <mxGeometry x="505" y="650" width="120" height="60" as="geometry" />
        </mxCell>
        <mxCell id="ZOfVJfw6BZA1SS0AodTx-1573" value="" style="edgeStyle=none;endArrow=none;strokeWidth=3;strokeColor=#64BBE2;html=1;entryX=0.5;entryY=1;entryDx=0;entryDy=0;exitX=0.5;exitY=0;exitDx=0;exitDy=0;" edge="1" parent="1" source="1368" target="ZOfVJfw6BZA1SS0AodTx-1572">
          <mxGeometry x="-221.5" y="56.5" width="100" height="100" as="geometry">
            <mxPoint x="620" y="930" as="sourcePoint" />
            <mxPoint x="500" y="855" as="targetPoint" />
          </mxGeometry>
        </mxCell>
        <mxCell id="ZOfVJfw6BZA1SS0AodTx-1574" value="Водители автомобилей" style="whiteSpace=wrap;html=1;fillColor=#64BBE2;strokeColor=none;fontColor=#FFFFFF;rounded=1;strokeWidth=3;shadow=0;" vertex="1" parent="1">
          <mxGeometry x="505" y="528.5" width="120" height="60" as="geometry" />
        </mxCell>
        <mxCell id="ZOfVJfw6BZA1SS0AodTx-1576" value="" style="edgeStyle=none;endArrow=none;strokeWidth=3;strokeColor=#64BBE2;html=1;entryX=0.5;entryY=1;entryDx=0;entryDy=0;exitX=0.5;exitY=0;exitDx=0;exitDy=0;" edge="1" parent="1" source="ZOfVJfw6BZA1SS0AodTx-1572" target="ZOfVJfw6BZA1SS0AodTx-1574">
          <mxGeometry x="-221.5" y="56.5" width="100" height="100" as="geometry">
            <mxPoint x="564.5" y="650" as="sourcePoint" />
            <mxPoint x="564.5" y="585" as="targetPoint" />
          </mxGeometry>
        </mxCell>
        <mxCell id="ZOfVJfw6BZA1SS0AodTx-1579" style="endArrow=none;strokeWidth=6;strokeColor=#f08705;html=1;exitX=0.5;exitY=0;exitDx=0;exitDy=0;entryX=0.5;entryY=1;entryDx=0;entryDy=0;" edge="1" parent="1" source="ZOfVJfw6BZA1SS0AodTx-1580" target="ZOfVJfw6BZA1SS0AodTx-1565">
          <mxGeometry relative="1" as="geometry">
            <mxPoint x="1135.5" y="1194.9999999999998" as="sourcePoint" />
            <mxPoint x="1130" y="1130" as="targetPoint" />
          </mxGeometry>
        </mxCell>
        <mxCell id="ZOfVJfw6BZA1SS0AodTx-1580" value="Тестировка" style="ellipse;whiteSpace=wrap;html=1;fontSize=20;fillColor=#F08705;strokeColor=none;fontColor=#FFFFFF;shadow=0;strokeWidth=3;gradientColor=none;" vertex="1" parent="1">
          <mxGeometry x="1058.25" y="1211.25" width="154.5" height="67.5" as="geometry" />
        </mxCell>
        <mxCell id="ZOfVJfw6BZA1SS0AodTx-1583" value="Аналитик" style="whiteSpace=wrap;html=1;fillColor=#f08e81;strokeColor=none;fontColor=#FFFFFF;rounded=1;strokeWidth=3;shadow=0;" vertex="1" parent="1">
          <mxGeometry x="1600" y="926.5" width="90" height="40" as="geometry" />
        </mxCell>
        <mxCell id="ZOfVJfw6BZA1SS0AodTx-1585" value="проект-менеджер" style="whiteSpace=wrap;html=1;fillColor=#f08e81;strokeColor=none;fontColor=#FFFFFF;rounded=1;strokeWidth=3;shadow=0;" vertex="1" parent="1">
          <mxGeometry x="1632" y="1006.5" width="120" height="50" as="geometry" />
        </mxCell>
        <mxCell id="ZOfVJfw6BZA1SS0AodTx-1587" value="Тестировщик" style="whiteSpace=wrap;html=1;fillColor=#f08e81;strokeColor=none;fontColor=#FFFFFF;rounded=1;strokeWidth=3;shadow=0;" vertex="1" parent="1">
          <mxGeometry x="1822" y="1011.5" width="100" height="45" as="geometry" />
        </mxCell>
        <mxCell id="ZOfVJfw6BZA1SS0AodTx-1589" value="Разработчики" style="whiteSpace=wrap;html=1;fillColor=#f08e81;strokeColor=none;fontColor=#FFFFFF;rounded=1;strokeWidth=3;shadow=0;" vertex="1" parent="1">
          <mxGeometry x="1922" y="946.5" width="100" height="40" as="geometry" />
        </mxCell>
        <mxCell id="ZOfVJfw6BZA1SS0AodTx-1591" value="" style="edgeStyle=none;endArrow=none;strokeWidth=3;strokeColor=#F08E81;html=1;exitX=0.5;exitY=1;exitDx=0;exitDy=0;entryX=0.5;entryY=0;entryDx=0;entryDy=0;" edge="1" parent="1" source="1421" target="ZOfVJfw6BZA1SS0AodTx-1589">
          <mxGeometry x="31" y="106.5" width="100" height="100" as="geometry">
            <mxPoint x="1767" y="914" as="sourcePoint" />
            <mxPoint x="1886" y="978" as="targetPoint" />
          </mxGeometry>
        </mxCell>
        <mxCell id="ZOfVJfw6BZA1SS0AodTx-1592" value="" style="edgeStyle=none;endArrow=none;strokeWidth=3;strokeColor=#F08E81;html=1;exitX=0.5;exitY=1;exitDx=0;exitDy=0;entryX=0.5;entryY=0;entryDx=0;entryDy=0;" edge="1" parent="1" source="1421" target="ZOfVJfw6BZA1SS0AodTx-1587">
          <mxGeometry x="31" y="106.5" width="100" height="100" as="geometry">
            <mxPoint x="1747" y="952.5" as="sourcePoint" />
            <mxPoint x="1866" y="1016.5" as="targetPoint" />
          </mxGeometry>
        </mxCell>
        <mxCell id="ZOfVJfw6BZA1SS0AodTx-1593" value="" style="edgeStyle=none;endArrow=none;strokeWidth=3;strokeColor=#F08E81;html=1;exitX=0.5;exitY=1;exitDx=0;exitDy=0;entryX=0.5;entryY=0;entryDx=0;entryDy=0;" edge="1" parent="1" source="1421" target="ZOfVJfw6BZA1SS0AodTx-1585">
          <mxGeometry x="31" y="106.5" width="100" height="100" as="geometry">
            <mxPoint x="1637" y="896.5" as="sourcePoint" />
            <mxPoint x="1756" y="960.5" as="targetPoint" />
          </mxGeometry>
        </mxCell>
        <mxCell id="ZOfVJfw6BZA1SS0AodTx-1594" value="" style="edgeStyle=none;endArrow=none;strokeWidth=3;strokeColor=#F08E81;html=1;entryX=0.5;entryY=1;entryDx=0;entryDy=0;exitX=0.5;exitY=0;exitDx=0;exitDy=0;" edge="1" parent="1" source="ZOfVJfw6BZA1SS0AodTx-1583" target="1421">
          <mxGeometry x="31" y="106.5" width="100" height="100" as="geometry">
            <mxPoint x="1583" y="876.5" as="sourcePoint" />
            <mxPoint x="1702" y="940.5" as="targetPoint" />
          </mxGeometry>
        </mxCell>
        <mxCell id="ZOfVJfw6BZA1SS0AodTx-1598" value="Источники&amp;nbsp;&lt;div&gt;финансирования&lt;/div&gt;" style="rounded=1;fillColor=#f08e81;strokeColor=none;strokeWidth=3;shadow=0;html=1;fontColor=#FFFFFF;" vertex="1" parent="1">
          <mxGeometry x="1370" y="890" width="100" height="54.12" as="geometry" />
        </mxCell>
        <mxCell id="ZOfVJfw6BZA1SS0AodTx-1599" value="" style="edgeStyle=none;endArrow=none;strokeWidth=3;strokeColor=#F08E81;html=1;exitX=0;exitY=1;exitDx=0;exitDy=0;entryX=0.5;entryY=0;entryDx=0;entryDy=0;" edge="1" parent="1" source="1352" target="ZOfVJfw6BZA1SS0AodTx-1598">
          <mxGeometry x="31" y="106.5" width="100" height="100" as="geometry">
            <mxPoint x="1640" y="863.25" as="sourcePoint" />
            <mxPoint x="1881" y="890.25" as="targetPoint" />
          </mxGeometry>
        </mxCell>
        <mxCell id="ZOfVJfw6BZA1SS0AodTx-1601" value="автозаправка" style="rounded=1;fillColor=#f08e81;strokeColor=none;strokeWidth=3;shadow=0;html=1;fontColor=#FFFFFF;" vertex="1" parent="1">
          <mxGeometry x="1375" y="990" width="90" height="43.68" as="geometry" />
        </mxCell>
        <mxCell id="ZOfVJfw6BZA1SS0AodTx-1602" value="" style="edgeStyle=none;endArrow=none;strokeWidth=3;strokeColor=#F08E81;html=1;exitX=0.5;exitY=1;exitDx=0;exitDy=0;entryX=0.5;entryY=0;entryDx=0;entryDy=0;" edge="1" parent="1" source="ZOfVJfw6BZA1SS0AodTx-1598" target="ZOfVJfw6BZA1SS0AodTx-1601">
          <mxGeometry x="31" y="106.5" width="100" height="100" as="geometry">
            <mxPoint x="1504" y="976.75" as="sourcePoint" />
            <mxPoint x="1447" y="1019.75" as="targetPoint" />
          </mxGeometry>
        </mxCell>
        <mxCell id="ZOfVJfw6BZA1SS0AodTx-1603" value="Создание акций&amp;nbsp;&lt;div&gt;только для&amp;nbsp;&lt;/div&gt;&lt;div&gt;приложения&lt;/div&gt;" style="rounded=1;fillColor=#64BBE2;strokeColor=none;strokeWidth=3;shadow=0;html=1;fontColor=#FFFFFF;" vertex="1" parent="1">
          <mxGeometry x="695.75" y="628.5" width="128.5" height="61.5" as="geometry" />
        </mxCell>
        <mxCell id="ZOfVJfw6BZA1SS0AodTx-1604" value="" style="edgeStyle=none;endArrow=none;strokeWidth=3;strokeColor=#64BBE2;html=1;entryX=0.5;entryY=1;entryDx=0;entryDy=0;exitX=0.5;exitY=0;exitDx=0;exitDy=0;" edge="1" parent="1" source="1350" target="ZOfVJfw6BZA1SS0AodTx-1603">
          <mxGeometry x="-221.5" y="56.5" width="100" height="100" as="geometry">
            <mxPoint x="710.5" y="805.5" as="sourcePoint" />
            <mxPoint x="640.5" y="805.5" as="targetPoint" />
          </mxGeometry>
        </mxCell>
        <mxCell id="ZOfVJfw6BZA1SS0AodTx-1605" value="Контроль&amp;nbsp;&lt;div&gt;персонала&lt;/div&gt;" style="rounded=1;fillColor=#f08e81;strokeColor=none;strokeWidth=3;shadow=0;html=1;fontColor=#FFFFFF;" vertex="1" parent="1">
          <mxGeometry x="1700" y="711.5" width="120" height="40" as="geometry" />
        </mxCell>
        <mxCell id="ZOfVJfw6BZA1SS0AodTx-1606" value="" style="edgeStyle=none;endArrow=none;strokeWidth=3;strokeColor=#F08E81;html=1;exitX=0;exitY=0.5;exitDx=0;exitDy=0;entryX=1;entryY=0;entryDx=0;entryDy=0;" edge="1" parent="1" source="ZOfVJfw6BZA1SS0AodTx-1605" target="1352">
          <mxGeometry x="31" y="106.5" width="100" height="100" as="geometry">
            <mxPoint x="1729" y="734.5" as="sourcePoint" />
            <mxPoint x="1673" y="785.5" as="targetPoint" />
          </mxGeometry>
        </mxCell>
      </root>
    </mxGraphModel>
  </diagram>
</mxfile>
